<svg width="120" height="30" viewBox="0 0 120 30" fill="none" xmlns="http://www.w3.org/2000/svg">
<g clip-path="url(#clip0_274_781)">
<path fill-rule="evenodd" clip-rule="evenodd" d="M19.9688 30C28.253 30 34.9688 23.2842 34.9688 15C34.9688 6.7158 28.253 0 19.9688 0C11.6846 0 4.96875 6.7158 4.96875 15C4.96875 23.2842 11.6846 30 19.9688 30ZM26.5618 9.5832C26.6777 8.2692 25.2899 8.8104 25.2899 8.8104C24.2654 9.2346 23.2088 9.6654 22.1408 10.101C18.8288 11.4519 15.4075 12.8475 12.4931 14.2212C10.9127 14.8008 11.8379 15.3804 11.8379 15.3804L14.3432 16.1535C15.4997 16.5015 16.1162 16.1148 16.1162 16.1148L21.5126 12.4434C23.4398 11.1294 22.9771 12.2115 22.5146 12.6753L18.4676 16.5399C17.8507 17.0811 18.1592 17.5449 18.4289 17.7768C19.1939 18.4515 21.0749 19.686 21.896 20.2248C22.1096 20.3649 22.2515 20.4582 22.2836 20.4822C22.4762 20.6367 23.5169 21.3324 24.2108 21.1779C24.9046 21.0231 24.9818 20.1342 24.9818 20.1342L25.9067 14.0664C26.0452 13.0131 26.2045 12.0006 26.3318 11.1918C26.4517 10.428 26.5432 9.8463 26.5618 9.5832Z" fill="black"/>
</g>
<g clip-path="url(#clip1_274_781)">
<path fill-rule="evenodd" clip-rule="evenodd" d="M61.9688 30C70.253 30 76.9688 23.2843 76.9688 15C76.9688 6.71574 70.253 0 61.9688 0C53.6845 0 46.9688 6.71574 46.9688 15C46.9688 23.2843 53.6845 30 61.9688 30ZM67.8975 8.69784C66.3539 7.1523 64.3009 6.30081 62.1137 6.3C57.6072 6.3 53.9391 9.96756 53.9375 14.4757C53.937 15.9167 54.3134 17.3234 55.0288 18.5631L53.8688 22.8L58.2031 21.6632C59.3972 22.3147 60.742 22.6579 62.1102 22.6584H62.1134C66.6196 22.6584 70.2877 18.9903 70.2896 14.4825C70.291 12.2975 69.4414 10.2434 67.8975 8.69784ZM65.8413 16.1876C65.637 16.0853 64.6327 15.5912 64.4453 15.5231C64.2581 15.4548 64.1217 15.4207 63.9856 15.6253C63.8495 15.83 63.458 16.2899 63.3387 16.4264C63.2195 16.5628 63.1003 16.5797 62.8962 16.4774C62.8628 16.4606 62.8172 16.4409 62.761 16.4165C62.4733 16.2917 61.9059 16.0457 61.2533 15.4633C60.646 14.9215 60.2359 14.2525 60.1167 14.0482C59.9975 13.8436 60.1039 13.7331 60.2062 13.6313C60.2675 13.5701 60.3379 13.4843 60.4084 13.3986C60.4435 13.3558 60.4786 13.313 60.5126 13.2734C60.5991 13.1723 60.6368 13.0955 60.6878 12.9915C60.697 12.9728 60.7065 12.9533 60.7169 12.9326C60.7851 12.7962 60.751 12.677 60.7 12.5747C60.6659 12.5063 60.4723 12.035 60.2967 11.6077C60.2094 11.3952 60.1266 11.1936 60.0701 11.0578C59.9236 10.7061 59.7752 10.707 59.6561 10.7077C59.6403 10.7078 59.625 10.7079 59.6103 10.7072C59.4914 10.7012 59.355 10.7001 59.2188 10.7001C59.0827 10.7001 58.8614 10.7511 58.674 10.9557C58.6619 10.9689 58.6484 10.9833 58.6338 10.999C58.4209 11.2263 57.959 11.7194 57.959 12.6601C57.959 13.6632 58.6874 14.6324 58.7925 14.7723L58.7933 14.7733C58.7999 14.7822 58.8118 14.7993 58.8287 14.8236C59.0726 15.1735 60.3672 17.0307 62.2832 17.8581C62.7707 18.0687 63.151 18.1943 63.4478 18.2884C63.9373 18.4439 64.3826 18.422 64.7348 18.3694C65.1273 18.3107 65.9434 17.8753 66.1136 17.3981C66.2838 16.921 66.2838 16.5118 66.2328 16.4266C66.1917 16.3577 66.0951 16.311 65.952 16.2418C65.9177 16.2253 65.8808 16.2074 65.8413 16.1876Z" fill="black"/>
</g>
<circle cx="99.9688" cy="15" r="15" fill="black"/>
<g clip-path="url(#clip2_274_781)">
<path d="M108.267 9.75345C107.617 8.98107 106.418 8.66602 104.127 8.66602H95.8105C93.4671 8.66602 92.2472 9.0014 91.5999 9.82371C90.9688 10.6255 90.9688 11.8068 90.9688 13.4418V16.558C90.9688 19.7255 91.7176 21.3337 95.8105 21.3337H104.127C106.114 21.3337 107.215 21.0557 107.927 20.3741C108.657 19.6751 108.969 18.5338 108.969 16.558V13.4418C108.969 11.7175 108.92 10.5292 108.267 9.75345ZM102.525 15.4301L98.7484 17.4038C98.664 17.4479 98.5717 17.4698 98.4795 17.4698C98.3751 17.4698 98.2709 17.4417 98.1786 17.3859C98.0049 17.2806 97.8988 17.0923 97.8988 16.8892V12.9545C97.8988 12.7517 98.0046 12.5636 98.178 12.4583C98.3514 12.3529 98.5671 12.3457 98.7471 12.4392L102.523 14.4002C102.716 14.4999 102.836 14.6983 102.837 14.9147C102.837 15.1313 102.717 15.3299 102.525 15.4301Z" fill="grey"/>
</g>
<defs>
<clipPath id="clip0_274_781">
<rect width="30" height="30" fill="white" transform="translate(4.96875)"/>
</clipPath>
<clipPath id="clip1_274_781">
<rect width="30" height="30" fill="white" transform="translate(46.9688)"/>
</clipPath>
<clipPath id="clip2_274_781">
<rect width="18" height="18" fill="white" transform="translate(90.9688 6)"/>
</clipPath>
</defs>
</svg>
